<svg width="191" height="42" viewBox="0 0 191 42" fill="none" xmlns="http://www.w3.org/2000/svg">
<g clip-path="url(#clip0_4905_7450)">
<path d="M15.2814 21.0092L25.3281 15.1817C25.4152 15.1301 25.4875 15.0565 25.5378 14.9683C25.5881 14.8801 25.6146 14.7802 25.6149 14.6785V6.81555C25.6148 6.71443 25.5882 6.61511 25.5378 6.52757C25.4874 6.44003 25.415 6.36735 25.3278 6.31683C25.2407 6.26631 25.1418 6.23972 25.0412 6.23975C24.9405 6.23977 24.8417 6.26641 24.7545 6.31697L0.309342 20.4969C0.22133 20.5472 0.148154 20.6201 0.0972507 20.7081C0.0463474 20.796 0.0195313 20.896 0.0195312 20.9978C0.0195313 21.0995 0.0463474 21.1995 0.0972507 21.2874C0.148154 21.3754 0.22133 21.4483 0.309342 21.4986L7.09663 25.437C7.18436 25.4884 7.28412 25.5155 7.38569 25.5155C7.48727 25.5155 7.58703 25.4884 7.67476 25.437L15.2814 21.0092Z" fill="#111279"/>
<path d="M28.7195 4.00239C28.6312 4.05309 28.5578 4.12631 28.5066 4.21466C28.4554 4.303 28.4284 4.40333 28.4282 4.50554V27.6371C28.4275 27.7381 28.4007 27.8372 28.3503 27.9245C28.2999 28.0119 28.2277 28.0846 28.1409 28.1354C28.054 28.1861 27.9555 28.2133 27.855 28.2142C27.7545 28.215 27.6555 28.1896 27.5678 28.1403L18.4043 22.8251C18.3174 22.7736 18.2184 22.7464 18.1175 22.7464C18.0166 22.7464 17.9176 22.7736 17.8307 22.8251L11.0616 26.7497C10.9748 26.801 10.9028 26.8742 10.8527 26.962C10.8027 27.0499 10.7764 27.1494 10.7764 27.2506C10.7764 27.3518 10.8027 27.4513 10.8527 27.5391C10.9028 27.627 10.9748 27.7002 11.0616 27.7515L35.484 41.9314C35.5719 41.9818 35.6713 42.0082 35.7725 42.0079C35.8736 42.0076 35.9729 41.9806 36.0605 41.9297C36.148 41.8788 36.2207 41.8057 36.2714 41.7177C36.322 41.6297 36.3487 41.5299 36.349 41.4282V0.580909C36.3493 0.47911 36.3229 0.379027 36.2722 0.290843C36.2216 0.202658 36.1487 0.129521 36.0608 0.0788646C35.9729 0.0282079 35.8733 0.00184342 35.772 0.0024517C35.6707 0.00305998 35.5713 0.0306182 35.484 0.0823265L28.7195 4.00239Z" fill="#111279"/>
<path d="M68.0004 24.9749C68.0004 27.3077 67.3342 29.1115 66.002 30.3861C64.6697 31.6608 62.8488 32.2966 60.5394 32.2936C59.1394 32.3089 57.7553 31.9956 56.497 31.3787C55.268 30.7604 54.1751 29.9002 53.2832 28.8492L55.5957 25.3774C56.2878 26.1381 57.1094 26.7686 58.022 27.2391C58.7223 27.6213 59.5016 27.8343 60.2981 27.8612C60.6583 27.881 61.0186 27.8231 61.3546 27.6913C61.6907 27.5596 61.9948 27.357 62.2464 27.0973C62.7596 26.4743 63.014 25.6764 62.9566 24.8697V13.9283H55.3271V9.81152H68.0004V24.9749Z" fill="#111279"/>
<path d="M75.6348 9.79346H80.6422V32.0742H75.6348V9.79346Z" fill="#111279"/>
<path d="M88.7168 9.79346H94.2886L101.194 23.6669L108.023 9.79346H113.567V32.0742H109.07V16.7325L102.765 29.8146H99.5327L93.2007 16.7325V32.0742H88.7031L88.7168 9.79346Z" fill="#111279"/>
<path d="M131.859 9.79321C133.291 9.76012 134.717 9.98633 136.069 10.461C137.143 10.831 138.089 11.4986 138.801 12.3868C139.45 13.2389 139.791 14.2872 139.77 15.36C139.795 16.4942 139.43 17.6023 138.737 18.4978C138.031 19.3912 137.041 20.0143 135.933 20.2635C137.266 20.4561 138.48 21.1392 139.341 22.1804C140.201 23.2216 140.646 24.5467 140.59 25.8988C140.617 27.0813 140.254 28.2395 139.556 29.1922C138.809 30.1617 137.806 30.9004 136.661 31.3238C135.242 31.8533 133.736 32.1079 132.223 32.074H121.657V9.79321H131.859ZM131.604 18.7997C132.399 18.8417 133.184 18.6003 133.821 18.1182C134.095 17.8873 134.312 17.5958 134.455 17.2664C134.598 16.937 134.663 16.5788 134.645 16.2199C134.662 15.8711 134.596 15.5231 134.453 15.2049C134.31 14.8866 134.093 14.6074 133.821 14.3902C133.178 13.9272 132.392 13.7084 131.604 13.7727H126.66V18.8043L131.604 18.7997ZM131.604 28.0944C132.587 28.148 133.562 27.8922 134.394 27.3626C134.721 27.1304 134.985 26.8194 135.162 26.4582C135.338 26.097 135.422 25.6971 135.405 25.2951C135.415 24.9069 135.328 24.5223 135.151 24.1769C134.975 23.8315 134.714 23.5365 134.394 23.319C133.564 22.7888 132.585 22.5433 131.604 22.6192H126.66V28.1082L131.604 28.0944Z" fill="#111279"/>
<path d="M147.377 9.79346H164.261V13.8462H152.384V18.8777H163.059V22.9213H152.384V28.0261H164.611V32.0696H147.377V9.79346Z" fill="#111279"/>
<path d="M181.336 9.79346C184.231 9.79346 186.475 10.4658 188.068 11.8107C189.661 13.1555 190.458 15.0537 190.458 17.5055C190.458 20.0701 189.661 22.069 188.068 23.5022C186.475 24.9355 184.231 25.6521 181.336 25.6521H176.711V32.0834H171.703V9.79346H181.336ZM181.336 21.5674C182.487 21.6384 183.627 21.2946 184.549 20.5976C185.323 19.9527 185.706 18.9692 185.706 17.6564C185.706 16.3437 185.323 15.4242 184.549 14.7884C183.622 14.1021 182.485 13.7638 181.336 13.8324H176.711V21.5674H181.336ZM180.735 23.7675H185.61L190.995 32.0742H185.328L180.735 23.7675Z" fill="#111279"/>
</g>
<defs>
<clipPath id="clip0_4905_7450">
<rect width="191" height="42" fill="white"/>
</clipPath>
</defs>
</svg>
