<svg width="81" height="92" viewBox="0 0 81 92" fill="none" xmlns="http://www.w3.org/2000/svg">
<path d="M33.79 46L55.81 33.26C56.0014 33.1495 56.1603 32.9906 56.2709 32.7993C56.3815 32.608 56.4398 32.391 56.44 32.17V15C56.4395 14.7778 56.3808 14.5596 56.2696 14.3672C56.1584 14.1748 55.9986 14.015 55.8063 13.9036C55.614 13.7923 55.3959 13.7334 55.1737 13.7327C54.9514 13.7321 54.733 13.7898 54.54 13.9L0.840006 44.9C0.649021 45.0108 0.490486 45.1697 0.38028 45.361C0.270074 45.5523 0.212067 45.7692 0.212067 45.99C0.212067 46.2108 0.270074 46.4277 0.38028 46.619C0.490486 46.8103 0.649021 46.9693 0.840006 47.08L15.76 55.7C15.9525 55.8077 16.1694 55.8643 16.39 55.8643C16.6106 55.8643 16.8275 55.8077 17.02 55.7L33.79 46Z" fill="#03045E"/>
<path d="M63.3 8.85C63.1079 8.9597 62.9484 9.1184 62.8378 9.30989C62.7271 9.50138 62.6692 9.71882 62.67 9.93999V60.51C62.6695 60.7322 62.6108 60.9504 62.4996 61.1428C62.3884 61.3352 62.2286 61.495 62.0363 61.6064C61.844 61.7177 61.6259 61.7766 61.4036 61.7773C61.1814 61.7779 60.9629 61.7202 60.77 61.61L40.65 50C40.4591 49.8874 40.2416 49.828 40.02 49.828C39.7984 49.828 39.5809 49.8874 39.39 50L24.52 58.57C24.3267 58.6801 24.1659 58.8394 24.0541 59.0317C23.9423 59.224 23.8834 59.4425 23.8834 59.665C23.8834 59.8875 23.9423 60.106 24.0541 60.2983C24.1659 60.4906 24.3267 60.6499 24.52 60.76L78.17 91.76C78.3615 91.8705 78.5786 91.9288 78.7997 91.9288C79.0208 91.9289 79.238 91.8707 79.4295 91.7603C79.621 91.6498 79.7801 91.491 79.8908 91.2996C80.0014 91.1082 80.0598 90.8911 80.06 90.67V1.34999C80.0598 1.12892 80.0014 0.911791 79.8908 0.720412C79.7801 0.529034 79.621 0.370144 79.4295 0.259697C79.238 0.14925 79.0208 0.0911342 78.7997 0.0911866C78.5786 0.0912389 78.3615 0.149457 78.17 0.259995L63.3 8.85Z" fill="#03045E"/>
</svg>
